<svg width="44" height="48" viewBox="0 0 44 48" fill="none" xmlns="http://www.w3.org/2000/svg">
<path d="M43.0794 4.16913V5.86358C43.0794 9.86039 43.0507 12.9095 42.9214 15.7718C42.8927 16.375 42.864 16.9206 42.8257 17.4376C42.6725 19.8117 42.4284 21.8795 42.0838 23.7559C41.9785 24.3111 41.8684 24.8664 41.7391 25.4025C40.4372 31.0028 37.9434 35.3251 33.6594 39.4033C33.4248 39.6235 33.1855 39.8484 32.9366 40.0686C32.6781 40.3079 32.3861 40.5616 32.0271 40.868C31.9218 40.9637 31.8117 41.0546 31.7016 41.1408L31.6777 41.1647C29.1791 43.2517 26.1252 45.3339 22.3438 47.5309L21.5397 48L20.7355 47.5309C16.9541 45.3339 13.9051 43.2469 11.4112 41.1695C11.3012 41.0786 11.1767 40.9733 11.0523 40.868C10.7268 40.5856 10.4252 40.3271 10.1476 40.0734C9.91304 39.8628 9.66414 39.6378 9.41524 39.3985C5.13602 35.3203 2.64699 31.0028 1.34025 25.4025C1.2158 24.8664 1.09613 24.3111 0.995612 23.7559C0.646191 21.8795 0.406861 19.8069 0.248903 17.428C0.215397 16.9158 0.186677 16.375 0.157958 15.7671C0.0287195 12.9095 0 9.8556 0 5.8588V4.16913C0 3.33147 0 2.47467 0 1.59872V0H43.0794V1.60351C43.0794 2.47467 43.0794 3.33147 43.0794 4.16913Z" fill="#00803F"/>
<path d="M41.4759 1.60352H1.60352C1.60352 2.47946 1.60352 3.33626 1.60352 4.17392V5.86359C1.60352 9.49183 1.62266 12.7419 1.76147 15.7C1.78541 16.2553 1.81413 16.7962 1.85242 17.3275C1.99602 19.5245 2.22099 21.5588 2.57519 23.4687C2.67571 24 2.7858 24.5265 2.90547 25.0387C4.07819 30.0742 6.30395 34.2194 10.5305 38.2449C10.7555 38.4603 10.9852 38.6757 11.2246 38.8863C11.507 39.1448 11.799 39.3985 12.1005 39.657C12.2106 39.7527 12.3255 39.8484 12.4404 39.9442C14.8815 41.9833 17.8732 44.0176 21.5397 46.1524C25.211 44.0176 28.2074 41.9785 30.6486 39.9394C30.7587 39.8436 30.8688 39.7527 30.9789 39.657C31.2804 39.3985 31.5772 39.1448 31.8596 38.8815C32.0941 38.6709 32.3287 38.4555 32.5489 38.2449C36.7754 34.2194 39.0012 30.0694 40.1739 25.0339C40.2936 24.517 40.4037 23.9952 40.5042 23.4639C40.8584 21.5588 41.0834 19.5245 41.227 17.3275C41.2653 16.7962 41.294 16.2505 41.3179 15.7C41.4567 12.7419 41.4759 9.49183 41.4759 5.86359V4.17392C41.4759 3.33626 41.4759 2.47946 41.4759 1.60352ZM3.43678 16.9015C6.74432 16.059 10.229 15.4511 13.8381 15.0921C14.4029 16.0255 14.8815 17.0116 15.2692 18.0503C15.6665 19.1129 15.9585 20.2042 16.15 21.3147C11.9904 21.5876 7.95533 22.1859 4.14041 23.081C3.7862 21.1759 3.57081 19.1225 3.43678 16.9015ZM12.1292 37.5604C8.95573 34.655 6.89271 31.6873 5.56682 28.2984C5.11688 27.1448 4.7531 25.9338 4.46111 24.6558C8.19466 23.775 12.1819 23.1815 16.3462 22.9087C16.7196 27.633 15.2884 32.6781 12.1292 37.5604ZM20.7355 37.4934C18.3997 37.5126 16.0973 37.637 13.8333 37.8572C16.9302 32.86 18.3231 27.7 17.9402 22.8177C18.864 22.7746 19.7974 22.7507 20.7355 22.7411V37.4934ZM20.7355 21.1376C19.7351 21.1424 18.7443 21.1711 17.7535 21.219C17.5477 19.9458 17.2222 18.7012 16.7675 17.4807C16.4372 16.5999 16.0447 15.7527 15.5995 14.9342C17.2892 14.805 19.0028 14.7284 20.7355 14.714V21.1376ZM22.3391 14.7188C24.0718 14.7332 25.7902 14.8097 27.4846 14.939C27.0347 15.7575 26.647 16.6047 26.3167 17.4854C25.862 18.7012 25.5317 19.9505 25.3307 21.2238C24.3399 21.1759 23.3442 21.1472 22.3391 21.1424V14.7188ZM22.3391 37.4934V22.7411C23.282 22.7459 24.2202 22.7746 25.144 22.8177C24.7611 27.7 26.154 32.86 29.2509 37.8572C26.9868 37.637 24.6797 37.5174 22.3391 37.4934ZM37.5078 28.2984C36.1867 31.6873 34.1237 34.6502 30.9549 37.5557C27.8006 32.6781 26.3646 27.633 26.7427 22.9087C30.9023 23.1815 34.8895 23.7798 38.6183 24.6558C38.3263 25.9338 37.9625 27.1448 37.5078 28.2984ZM38.9438 23.0762C35.1288 22.1859 31.0985 21.5876 26.9438 21.3099C27.1304 20.1994 27.4224 19.1081 27.8197 18.0455C28.2074 17.0068 28.6861 16.0207 29.2509 15.0874C32.8504 15.4464 36.3398 16.0543 39.6426 16.8967C39.5086 19.1225 39.2884 21.1711 38.9438 23.0762Z" fill="black"/>
<path d="M39.6426 16.9015C39.5086 19.1225 39.2884 21.1759 38.9438 23.081C35.1288 22.1907 31.0985 21.5924 26.9438 21.3147C27.1304 20.2042 27.4224 19.1129 27.8197 18.0503C28.2074 17.0116 28.6861 16.0255 29.2509 15.0922C32.8552 15.4464 36.3398 16.0591 39.6426 16.9015Z" fill="white"/>
<path d="M38.6183 24.651C38.3215 25.929 37.9577 27.1448 37.5078 28.2984C36.1867 31.6873 34.1237 34.6502 30.9549 37.5557C27.8006 32.6781 26.3646 27.6331 26.7427 22.9087C30.9023 23.1767 34.8895 23.7751 38.6183 24.651Z" fill="#00803F"/>
<path d="M29.2509 37.8572C26.9869 37.637 24.6749 37.5173 22.3391 37.4934V22.7411C23.282 22.7459 24.2202 22.7746 25.144 22.8177C24.7611 27.7 26.1588 32.86 29.2509 37.8572Z" fill="#FC8231"/>
<path d="M27.4847 14.9389C27.0347 15.7574 26.647 16.6047 26.3167 17.4854C25.862 18.7012 25.5317 19.9505 25.3307 21.2237C24.3399 21.1759 23.3443 21.1472 22.3391 21.1424V14.7188C24.0766 14.7331 25.795 14.8097 27.4847 14.9389Z" fill="#FC8231"/>
<path d="M20.7355 14.7188V21.1424C19.7351 21.1472 18.7443 21.1759 17.7535 21.2237C17.5477 19.9505 17.2222 18.706 16.7674 17.4854C16.4372 16.6047 16.0447 15.7574 15.5995 14.9389C17.2892 14.8097 19.0076 14.7331 20.7355 14.7188Z" fill="#FC8231"/>
<path d="M20.7355 22.7411V37.4934C18.3997 37.5125 16.0973 37.637 13.8333 37.8572C16.9302 32.86 18.3231 27.7 17.9402 22.8177C18.8688 22.7746 19.7974 22.7507 20.7355 22.7411Z" fill="#FC8231"/>
<path d="M12.1292 37.5605C8.95573 34.655 6.89271 31.6873 5.56682 28.2984C5.11688 27.1448 4.7531 25.9338 4.46112 24.6558C8.19467 23.7751 12.1819 23.1815 16.3462 22.9087C16.7196 27.6331 15.2884 32.6781 12.1292 37.5605Z" fill="white"/>
<path d="M16.1452 21.3147C11.9856 21.5876 7.95053 22.1859 4.13561 23.081C3.78619 21.1759 3.57079 19.1225 3.43677 16.9015C6.74431 16.0591 10.2289 15.4512 13.838 15.0922C14.4029 16.0255 14.8815 17.0116 15.2692 18.0503C15.6665 19.1081 15.9585 20.1995 16.1452 21.3147Z" fill="#00803F"/>
<path d="M7.38573 3.20203C6.92143 3.20203 6.69167 3.20203 6.22737 3.20203C5.84923 3.71898 5.66256 3.98703 5.28441 4.52313C4.91585 4.00618 4.73396 3.73813 4.36539 3.20203C3.90109 3.20203 3.67133 3.20203 3.20703 3.20203C3.20703 3.87215 3.20703 4.20243 3.20703 4.88691C4.2553 4.8534 4.78182 4.83426 5.83966 4.80554C4.89191 7.74451 4.06862 10.7266 3.29319 13.7134C3.31234 14.35 3.32191 14.6611 3.35063 15.2786C4.89191 14.8957 5.6817 14.7186 7.29 14.417C7.27564 13.8522 7.27085 13.5602 7.26607 12.9715C6.25131 13.1342 5.74393 13.2252 4.7531 13.4166C5.57161 10.5159 6.41405 7.62006 7.36658 4.76246C7.37137 4.13063 7.37616 3.82428 7.38573 3.20203Z" fill="white"/>
<path d="M11.9426 3.20203C11.1384 3.20203 10.7363 3.20203 9.93219 3.20203C9.30036 6.86856 8.76426 10.559 8.24252 14.2399C8.83127 14.1346 9.12804 14.0868 9.72637 13.9958C9.82689 13.1677 9.87954 12.7465 9.99442 11.8801C10.7172 11.794 11.0762 11.7557 11.8085 11.6839C11.9378 12.5024 12.0048 12.8997 12.1484 13.6655C12.7659 13.5937 13.0674 13.5602 13.6657 13.498C13.01 10.0804 12.4834 6.64359 11.9426 3.20203ZM10.1907 10.4154C10.4683 8.34762 10.6167 7.12704 10.9087 5.07359C11.1719 7.11268 11.3012 8.30933 11.5931 10.2862C11.0283 10.3388 10.7507 10.3628 10.1907 10.4154Z" fill="white"/>
<path d="M16.0926 12.0094C16.083 9.07518 16.1069 6.141 16.1261 3.20203C15.5277 3.20203 15.231 3.20203 14.6326 3.20203C14.6135 6.6053 14.5896 10.0086 14.6279 13.4071C16.016 13.2826 16.6717 13.2443 18.0598 13.1821C18.0598 12.6843 18.0598 12.4306 18.0598 11.9088C17.2701 11.9424 16.8728 11.9615 16.0926 12.0094Z" fill="white"/>
<path d="M21.7551 6.28462C21.7551 5.71023 21.7551 5.4709 21.7551 4.94916C21.7551 4.74812 21.621 4.58538 21.4535 4.58538C21.1472 4.58538 20.9892 4.58538 20.6829 4.58538C20.5201 4.58538 20.3813 4.74812 20.3813 4.94916C20.3765 7.13664 20.3717 9.32411 20.367 11.5164C20.367 11.703 20.501 11.8514 20.6685 11.8514C20.9796 11.8466 21.1376 11.8466 21.4487 11.8466C21.6163 11.8466 21.7503 11.6983 21.7503 11.5068C21.7503 10.6835 21.7503 10.2575 21.7503 9.37676C21.5062 9.37676 21.3817 9.37676 21.1328 9.37676C21.1328 8.8646 21.1328 8.60133 21.1328 8.07002C21.98 8.07002 22.4061 8.07002 23.2533 8.0796C23.2581 9.60652 23.2581 10.3293 23.2629 11.6983C23.2629 12.6699 22.789 13.1103 21.8269 13.1055C21.2094 13.1055 20.8983 13.1055 20.2808 13.1151C19.3235 13.1295 18.8496 12.6939 18.8496 11.7174C18.8496 9.4007 18.864 7.0792 18.8783 4.76248C18.8831 3.70465 19.3618 3.19727 20.3047 3.19727C20.9126 3.19727 21.2142 3.19727 21.8221 3.19727C22.765 3.19727 23.2389 3.70465 23.2389 4.76248C23.2437 5.36559 23.2437 5.63364 23.2437 6.28941C22.6597 6.28941 22.3582 6.28462 21.7551 6.28462Z" fill="white"/>
<path d="M24.4882 3.20203C24.5074 6.52393 24.5313 9.84582 24.5265 13.1677C25.1249 13.1917 25.4216 13.206 26.0152 13.2347C26.0295 9.8889 26.0008 6.54786 25.9817 3.20203C25.3833 3.20203 25.0818 3.20203 24.4882 3.20203Z" fill="white"/>
<path d="M30.73 9.71659C31.3762 9.60649 31.6921 9.09911 31.6873 8.13701C31.6777 6.82069 31.6729 6.12664 31.6586 4.86298C31.6442 3.74291 31.1703 3.20203 30.2226 3.20203C29.0211 3.20203 28.418 3.20203 27.2166 3.20203C27.2405 6.57179 27.2693 9.94156 27.2405 13.3161C27.8293 13.3592 28.1165 13.3831 28.7148 13.4358C28.734 12.0046 28.7387 11.2483 28.7387 9.64C28.935 9.64957 29.0355 9.65436 29.2318 9.66872C29.7296 11.3105 29.9641 12.0907 30.4523 13.6081C31.1129 13.6847 31.4432 13.723 32.0989 13.8139C31.5676 12.2295 31.29 11.4158 30.73 9.71659ZM30.1747 7.89768C30.1747 8.11786 30.0407 8.28539 29.8779 8.28061C29.4232 8.25667 29.1935 8.2471 28.734 8.22795C28.7292 6.78719 28.7244 6.02612 28.7148 4.62843C29.1743 4.63322 29.3993 4.63801 29.8588 4.64279C30.0215 4.64279 30.1556 4.8199 30.1604 5.03051C30.1699 6.13142 30.1699 6.74411 30.1747 7.89768Z" fill="white"/>
<path d="M32.8839 3.20205C32.9366 6.77764 32.9797 10.358 32.9318 13.9336C33.5349 14.0245 33.8317 14.0724 34.4252 14.1681C34.4827 10.5112 34.4348 6.85423 34.3821 3.19727C33.7838 3.20205 33.4823 3.20205 32.8839 3.20205Z" fill="white"/>
<path d="M39.8532 10.4202C39.8389 11.6983 39.8293 12.3205 39.791 13.5172C39.7575 14.7138 39.2884 15.1638 38.3885 14.9579C37.8428 14.8335 37.57 14.776 37.0195 14.6612C36.1101 14.4745 35.6602 13.8714 35.6697 12.7657C35.6745 12.1817 35.6793 11.8849 35.6793 11.2818C36.2681 11.3584 36.5648 11.4015 37.1488 11.4829C37.144 12.019 37.144 12.2822 37.1344 12.7992C37.1296 13.0194 37.2589 13.2156 37.4168 13.2443C37.6753 13.2922 37.8045 13.3161 38.0582 13.364C38.2162 13.3927 38.3502 13.2395 38.355 13.0146C38.3742 11.9998 38.3789 11.4781 38.3885 10.4059C38.3885 10.1666 38.2593 9.95594 38.1013 9.93679C37.6657 9.88414 37.4456 9.85542 37.0052 9.80756C36.1292 9.70704 35.6793 9.07521 35.6697 7.82112C35.6602 6.65319 35.6554 6.06922 35.6362 4.95873C35.6219 3.77166 36.0814 3.19727 37.0148 3.19727C37.5939 3.19727 37.8859 3.19727 38.4699 3.19727C39.4033 3.19727 39.8676 3.81952 39.8724 5.09754C39.8724 5.77724 39.8724 6.07401 39.8724 6.80636C39.2788 6.76328 38.9821 6.74413 38.3885 6.70584C38.3837 6.08837 38.3837 5.83468 38.3789 5.26508C38.3789 5.03053 38.2449 4.8295 38.0774 4.82471C37.8141 4.81514 37.6801 4.81514 37.4168 4.80556C37.2541 4.80078 37.1201 4.98745 37.1249 5.21721C37.1344 6.20804 37.1392 6.73456 37.144 7.78283C37.144 8.02694 37.278 8.23755 37.4408 8.25191C37.8763 8.29021 38.0917 8.30935 38.5273 8.35243C39.4272 8.43859 39.8676 9.15179 39.8532 10.4202Z" fill="white"/>
<path d="M18.8591 39.8053V41.8492H18.4522V40.394H17.9352V40.0398H18.4522V39.8053H18.8591Z" fill="white"/>
<path d="M20.1562 39.7574C19.6632 39.7574 19.3329 40.0159 19.3329 40.4706C19.3329 40.8967 19.6345 41.1503 20.0748 41.1503C20.2472 41.1503 20.4721 41.1025 20.6157 40.9397C20.6014 41.3083 20.4674 41.5476 20.2328 41.5476H20.0318C19.9073 41.5476 19.7829 41.471 19.7446 41.3466H19.3281C19.3904 41.6721 19.6345 41.9018 20.1179 41.9018C20.8503 41.9018 21.0226 41.3179 21.0226 40.7914C21.0274 40.1069 20.721 39.7574 20.1562 39.7574ZM20.252 40.8057H20.0796C19.8738 40.8057 19.7398 40.6525 19.7398 40.4515C19.7398 40.2457 19.8786 40.1164 20.0557 40.1164H20.2472C20.4291 40.1164 20.5918 40.2361 20.5918 40.4706C20.5966 40.7004 20.4195 40.8057 20.252 40.8057Z" fill="white"/>
<path d="M22.7984 41.0211V39.8101H21.9416L21.3194 40.978V41.3705H22.4059V41.8539H22.8032V41.3705H23.0856V41.0211H22.7984ZM22.4059 41.0211H21.7262V40.9684L22.1379 40.1643H22.4059V41.0211Z" fill="white"/>
<path d="M24.8567 41.0211V39.8101H23.9999L23.3776 40.978V41.3705H24.4642V41.8539H24.8615V41.3705H25.1439V41.0211H24.8567ZM24.4642 41.0211H23.7845V40.9684L24.1961 40.1643H24.4642V41.0211Z" fill="white"/>
</svg>
